#N canvas 5 37 1465 817 12;
#X obj 63 36 tgl 19 0 empty empty empty 0 -10 0 12 #fcfcfc #000000 #000000 0 1;
#X obj 292 729 netsend -u -b;
#X obj 259 553 noteout;
#X obj 398 639 oscparse;
#X listbox 398 665 20 0 0 0 - - - 0;
#X obj 203 587 oscformat -f f x;
#X msg 346 698 connect localhost 12345;
#X obj 230 513 makenote 60 5000;
#X obj 393 587 oscformat -f f y;
#X text 97 23 MEDIA>MIDI>IACDRIVERS as input and output command-E to edit patch toggle on! connect!;
#X obj 58 103 random 4;
#X obj 410 212 sel 0 1 2 3 4;
#X obj 40 211 sel 0 1 2 3 4;
#X obj 409 98 random 4;
#X msg 29 255 50;
#X msg 52 280 55;
#X msg 77 313 60;
#X msg 105 334 61;
#X msg 115 250 50;
#X msg 139 278 52;
#X msg 397 256 70;
#X msg 420 281 72;
#X msg 445 314 74;
#X msg 473 335 75;
#X msg 483 251 77;
#X msg 507 279 79;
#X obj 62 74 metro 500;
#X connect 0 0 26 0;
#X connect 3 0 4 0;
#X connect 5 0 1 0;
#X connect 6 0 1 0;
#X connect 7 0 2 0;
#X connect 7 0 5 0;
#X connect 7 1 2 1;
#X connect 7 1 8 0;
#X connect 8 0 1 0;
#X connect 8 0 3 0;
#X connect 10 0 12 0;
#X connect 11 0 20 0;
#X connect 11 1 21 0;
#X connect 11 2 22 0;
#X connect 11 3 23 0;
#X connect 11 4 24 0;
#X connect 11 5 25 0;
#X connect 12 0 14 0;
#X connect 12 1 15 0;
#X connect 12 2 16 0;
#X connect 12 3 17 0;
#X connect 12 4 18 0;
#X connect 12 5 19 0;
#X connect 13 0 11 0;
#X connect 14 0 7 0;
#X connect 15 0 7 0;
#X connect 16 0 7 0;
#X connect 17 0 7 0;
#X connect 18 0 7 0;
#X connect 19 0 7 0;
#X connect 20 0 7 1;
#X connect 21 0 7 1;
#X connect 22 0 7 1;
#X connect 23 0 7 1;
#X connect 24 0 7 1;
#X connect 25 0 7 1;
#X connect 26 0 10 0;
#X connect 26 0 13 0;
